<?xml version="1.0" encoding="UTF-8"?>
<svg width="16px" height="16px" viewBox="0 0 16 16" version="1.1" xmlns="http://www.w3.org/2000/svg" xmlns:xlink="http://www.w3.org/1999/xlink">
    <!-- Generator: Sketch 59.1 (86144) - https://sketch.com -->
    <title>edit_03</title>
    <desc>Created with Sketch.</desc>
    <g id="edit_03" stroke="none" stroke-width="1" fill="none" fill-rule="evenodd">
        <g id="Group-34" transform="translate(-1.000000, -1.000000)" fill="#000000" fill-rule="nonzero">
            <polygon id="Path-67" transform="translate(13.039665, 4.594565) rotate(-315.000000) translate(-13.039665, -4.594565) " points="11.283567 5.15706493 14.7957621 5.15706493 14.7957621 4.03206493 11.283567 4.03206493"></polygon>
            <path d="M9.06859756,-1.125 C10.3491236,-1.125 11.3871951,-0.0869285129 11.3871951,1.19359756 L11.3871951,13.6190687 L9.06859756,18.2562638 L6.75,13.6190687 L6.75,1.19359756 C6.75,-0.0869285129 7.78807149,-1.125 9.06859756,-1.125 Z M10.2621951,1.19359756 C10.2621951,0.534391831 9.72780329,0 9.06859756,0 C8.40939183,0 7.875,0.534391831 7.875,1.19359756 L7.875,13.3534923 L9.06859756,15.7406874 L10.2621951,13.3534923 L10.2621951,1.19359756 Z" id="Path-58" transform="translate(9.068598, 8.565632) rotate(-315.000000) translate(-9.068598, -8.565632) "></path>
        </g>
    </g>
</svg>